<?xml version="1.0"?>
<svg xmlns="http://www.w3.org/2000/svg" xmlns:xlink="http://www.w3.org/1999/xlink" xmlns:svgjs="http://svgjs.com/svgjs" version="1.1" width="512" height="512" x="0" y="0" viewBox="0 0 512 512" style="enable-background:new 0 0 512 512" xml:space="preserve" class=""><g><link type="text/css" rel="stylesheet" id="dark-mode-general-link"/><link type="text/css" rel="stylesheet" id="dark-mode-custom-link"/><style lang="en" type="text/css" id="dark-mode-custom-style"/>
<g xmlns="http://www.w3.org/2000/svg">
	<g>
		<path d="M484.953,356.925C484.981,356.62,485,356.312,485,356v-78.5c0-44.939-36.561-81.5-81.5-81.5H292.738    c-5.523,0-10,4.477-10,10s4.477,10,10,10H403.5c33.911,0,61.5,27.589,61.5,61.5v64.885c-9.696-5.177-20.461-8.602-31.872-9.851    v-36.867c0-21.321-17.346-38.667-38.667-38.667H281.795c-11.358,0-21.586,4.924-28.667,12.747    c-7.08-7.823-17.309-12.747-28.667-12.747H111.795c-21.321,0-38.667,17.346-38.667,38.667v37.684    c-9.286,1.64-18.075,4.734-26.128,9.034V277.5c0-33.911,27.589-61.5,61.5-61.5H205c5.523,0,10-4.477,10-10s-4.477-10-10-10h-96.5    C63.561,196,27,232.561,27,277.5V356c0,0.312,0.019,0.62,0.047,0.925C10.381,373.041,0,395.619,0,420.578V502    c0,5.522,4.477,10,10,10h492c5.523,0,10-4.478,10-10v-81.422C512,395.619,501.619,373.041,484.953,356.925z M263.129,295.667    C263.128,285.374,271.502,277,281.795,277h112.667c10.293,0,18.667,8.374,18.667,18.667V332h-150V295.667z M111.795,277h112.667    c10.293,0,18.667,8.374,18.667,18.667V332h-150v-36.333h-0.001C93.128,285.374,101.502,277,111.795,277z M492,492H20v-71.422    C20,382.764,50.764,352,88.579,352h164.55h170h0.293C461.236,352,492,382.764,492,420.578V492z" fill="#dddddd" data-original="#000000" style="" class=""/>
	</g>
</g>
<g xmlns="http://www.w3.org/2000/svg">
	<g>
		<path d="M260.05,198.93c-1.86-1.86-4.44-2.93-7.07-2.93s-5.21,1.07-7.07,2.93c-1.86,1.86-2.93,4.44-2.93,7.07s1.07,5.21,2.93,7.07    s4.44,2.93,7.07,2.93s5.21-1.07,7.07-2.93c1.86-1.86,2.93-4.44,2.93-7.07S261.91,200.79,260.05,198.93z" fill="#dddddd" data-original="#000000" style="" class=""/>
	</g>
</g>
<g xmlns="http://www.w3.org/2000/svg">
	<g>
		<path d="M369.333,402H64c-5.523,0-10,4.478-10,10c0,5.522,4.477,10,10,10h305.333c5.523,0,10-4.478,10-10    C379.333,406.478,374.856,402,369.333,402z" fill="#dddddd" data-original="#000000" style="" class=""/>
	</g>
</g>
<g xmlns="http://www.w3.org/2000/svg">
	<g>
		<path d="M409.833,402h-0.25c-5.523,0-10,4.478-10,10c0,5.522,4.477,10,10,10h0.25c5.523,0,10-4.478,10-10    C419.833,406.478,415.356,402,409.833,402z" fill="#dddddd" data-original="#000000" style="" class=""/>
	</g>
</g>
<g xmlns="http://www.w3.org/2000/svg">
	<g>
		<path d="M368,0H144c-5.523,0-10,4.477-10,10v120c0,5.523,4.477,10,10,10h224c5.523,0,10-4.477,10-10V10C378,4.477,373.523,0,368,0    z M197.095,120.001l42.375-42.375l38.444,38.444c0.001,0,0.001,0.001,0.002,0.002c0.001,0.001,0.001,0.001,0.002,0.002    l3.927,3.927H197.095z M310.13,120l-11-11l16.857-16.858L343.845,120H310.13z M358,105.87l-34.941-34.941    c-3.905-3.905-10.237-3.905-14.143,0l-23.929,23.929l-38.446-38.446c-3.905-3.905-10.237-3.905-14.143,0L168.81,120H154V20h204    V105.87z" fill="#dddddd" data-original="#000000" style="" class=""/>
	</g>
</g>
<g xmlns="http://www.w3.org/2000/svg">
	<g>
		<path d="M187.75,40.5h-10.5c-5.523,0-10,4.477-10,10s4.477,10,10,10h10.5c5.523,0,10-4.477,10-10S193.273,40.5,187.75,40.5z" fill="#dddddd" data-original="#000000" style="" class=""/>
	</g>
</g>
<g xmlns="http://www.w3.org/2000/svg">
	<g>
		<path d="M284.725,28.5h-10.5c-5.523,0-10,4.477-10,10s4.477,10,10,10h10.5c5.523,0,10-4.477,10-10S290.248,28.5,284.725,28.5z" fill="#dddddd" data-original="#000000" style="" class=""/>
	</g>
</g>
<g xmlns="http://www.w3.org/2000/svg">
</g>
<g xmlns="http://www.w3.org/2000/svg">
</g>
<g xmlns="http://www.w3.org/2000/svg">
</g>
<g xmlns="http://www.w3.org/2000/svg">
</g>
<g xmlns="http://www.w3.org/2000/svg">
</g>
<g xmlns="http://www.w3.org/2000/svg">
</g>
<g xmlns="http://www.w3.org/2000/svg">
</g>
<g xmlns="http://www.w3.org/2000/svg">
</g>
<g xmlns="http://www.w3.org/2000/svg">
</g>
<g xmlns="http://www.w3.org/2000/svg">
</g>
<g xmlns="http://www.w3.org/2000/svg">
</g>
<g xmlns="http://www.w3.org/2000/svg">
</g>
<g xmlns="http://www.w3.org/2000/svg">
</g>
<g xmlns="http://www.w3.org/2000/svg">
</g>
<g xmlns="http://www.w3.org/2000/svg">
</g>
</g></svg>
