<?xml version="1.0"?>
<svg xmlns="http://www.w3.org/2000/svg" xmlns:xlink="http://www.w3.org/1999/xlink" xmlns:svgjs="http://svgjs.com/svgjs" version="1.1" width="512" height="512" x="0" y="0" viewBox="0 0 512 512" style="enable-background:new 0 0 512 512" xml:space="preserve" class=""><g><link type="text/css" rel="stylesheet" id="dark-mode-general-link"/><link type="text/css" rel="stylesheet" id="dark-mode-custom-link"/><style lang="en" type="text/css" id="dark-mode-custom-style"/>
<g xmlns="http://www.w3.org/2000/svg">
	<g>
		<path d="M507.381,53.548c2.917-5.195,4.588-11.179,4.588-17.549c0-19.832-16.136-35.968-35.968-35.968    c-19.833,0-35.968,16.136-35.968,35.968c0,6.369,1.671,12.353,4.587,17.547c-0.042,0.027-0.085,0.047-0.126,0.075l-0.079,0.052    c-0.002,0.001-0.005,0.003-0.007,0.005L71.058,300.047c0.589-2.578,0.91-5.256,0.91-8.01c0-19.832-16.136-35.968-35.968-35.968    S0.033,272.205,0.033,292.037c0,6.37,1.672,12.354,4.588,17.549c-2.775,1.777-4.62,4.88-4.62,8.42V502c0,5.522,4.478,10,10,10h492    c5.522,0,10-4.478,10-10V61.967C512,58.427,510.155,55.324,507.381,53.548z M36,276.068c8.806,0,15.969,7.163,15.969,15.969    c0,8.806-7.163,15.969-15.969,15.969c-8.806,0-15.969-7.163-15.969-15.969C20.031,283.231,27.195,276.068,36,276.068z     M51.999,492.001H20V328.005h31.999V492.001z M476.001,20.03c8.806,0,15.969,7.163,15.969,15.969    c0,8.806-7.163,15.969-15.969,15.969c-8.806,0-15.969-7.163-15.969-15.969C460.032,27.193,467.196,20.03,476.001,20.03z     M265.876,195.45L440.001,80.547v155.416h-77.248v-30.227c0-5.522-4.478-10-10-10s-10,4.478-10,10v40.227    c0,0.752,0.09,1.481,0.247,2.186v51.957h-77.125V195.45z M245.877,208.647v101.456c0,0.508,0.05,1.003,0.123,1.49v52.652h-77.001    V259.673c0-0.097-0.011-0.19-0.014-0.285L245.877,208.647z M71.999,323.387l77.001-50.812v101.67v54.143H71.999V323.387z     M492,428.334H383.671c-5.522,0-10,4.478-10,10s4.478,10,10,10H492V492H71.999v-43.612h87.001c5.522,0,10-4.478,10-10v-54.143    h87.001c5.522,0,10-4.478,10-10v-54.143h87.002c5.522,0,10-4.478,10-10v-54.143h129V428.334z M492,235.963h-31.999V71.967H492    V235.963z" fill="#dddddd" data-original="#000000" style="" class=""/>
	</g>
</g>
<g xmlns="http://www.w3.org/2000/svg">
	<g>
		<path d="M345.073,431.265c-1.859-1.86-4.439-2.93-7.069-2.93s-5.21,1.07-7.07,2.93c-1.86,1.86-2.93,4.44-2.93,7.07    s1.069,5.21,2.93,7.07c1.86,1.859,4.44,2.93,7.07,2.93s5.21-1.07,7.069-2.93c1.86-1.86,2.931-4.44,2.931-7.07    S346.934,433.125,345.073,431.265z" fill="#dddddd" data-original="#000000" style="" class=""/>
	</g>
</g>
<g xmlns="http://www.w3.org/2000/svg">
	<g>
		<path d="M359.824,161.942c-1.859-1.87-4.439-2.93-7.069-2.93s-5.21,1.06-7.07,2.93c-1.86,1.86-2.93,4.431-2.93,7.07    c0,2.63,1.069,5.21,2.93,7.07c1.86,1.859,4.44,2.93,7.07,2.93s5.21-1.07,7.069-2.93c1.86-1.86,2.931-4.44,2.931-7.07    C362.754,166.372,361.684,163.793,359.824,161.942z" fill="#dddddd" data-original="#000000" style="" class=""/>
	</g>
</g>
<g xmlns="http://www.w3.org/2000/svg">
	<g>
		<path d="M106.03,86.498H10.032c-5.522,0-10,4.478-10,10v95.997c0,5.522,4.477,10,10,10h95.997c5.522,0,10-4.478,10-10V96.497    C116.029,90.976,111.551,86.498,106.03,86.498z M96.03,182.495H20.032v-75.998H96.03V182.495z" fill="#dddddd" data-original="#000000" style="" class=""/>
	</g>
</g>
<g xmlns="http://www.w3.org/2000/svg">
	<g>
		<path d="M256.007,0h-95.997c-5.522,0-10,4.478-10,10v95.997c0,5.522,4.478,10,10,10h95.997c5.522,0,10-4.478,10-10V10    C266.006,4.478,261.528,0,256.007,0z M246.007,95.997h-75.998V19.999h75.998V95.997z" fill="#dddddd" data-original="#000000" style="" class=""/>
	</g>
</g>
<g xmlns="http://www.w3.org/2000/svg">
</g>
<g xmlns="http://www.w3.org/2000/svg">
</g>
<g xmlns="http://www.w3.org/2000/svg">
</g>
<g xmlns="http://www.w3.org/2000/svg">
</g>
<g xmlns="http://www.w3.org/2000/svg">
</g>
<g xmlns="http://www.w3.org/2000/svg">
</g>
<g xmlns="http://www.w3.org/2000/svg">
</g>
<g xmlns="http://www.w3.org/2000/svg">
</g>
<g xmlns="http://www.w3.org/2000/svg">
</g>
<g xmlns="http://www.w3.org/2000/svg">
</g>
<g xmlns="http://www.w3.org/2000/svg">
</g>
<g xmlns="http://www.w3.org/2000/svg">
</g>
<g xmlns="http://www.w3.org/2000/svg">
</g>
<g xmlns="http://www.w3.org/2000/svg">
</g>
<g xmlns="http://www.w3.org/2000/svg">
</g>
</g></svg>
